<svg width="25" height="24" viewBox="0 0 25 24" fill="none" xmlns="http://www.w3.org/2000/svg">
<path d="M17.0044 0.781701C16.5119 0.294057 15.844 0.0201263 15.1477 0.0201263C14.4513 0.0201263 13.7835 0.294057 13.2909 0.781701L1.75829 12.2079C1.51438 12.4495 1.3209 12.7364 1.1889 13.0521C1.05689 13.3678 0.988953 13.7061 0.988953 14.0479C0.988953 14.3896 1.05689 14.7279 1.1889 15.0436C1.3209 15.3594 1.51438 15.6462 1.75829 15.8878L3.12647 17.2421C3.72184 17.8331 4.55886 17.7278 5.06434 17.4294C5.34317 17.2654 5.66922 17.1981 5.99098 17.2381C6.31274 17.2781 6.6119 17.4231 6.8412 17.6502C7.0705 17.8774 7.21689 18.1738 7.25725 18.4925C7.29761 18.8113 7.22965 19.1343 7.06408 19.4105C6.76406 19.9113 6.65666 20.7405 7.2532 21.3303L8.62255 22.6857C8.86645 22.9273 9.15601 23.119 9.47469 23.2498C9.79337 23.3806 10.1349 23.4479 10.4799 23.4479C10.8248 23.4479 11.1664 23.3806 11.485 23.2498C11.8037 23.119 12.0933 22.9273 12.3372 22.6857L23.8687 11.2619C24.1126 11.0202 24.3061 10.7334 24.4381 10.4177C24.5701 10.102 24.638 9.76359 24.638 9.42188C24.638 9.08016 24.5701 8.74179 24.4381 8.42608C24.3061 8.11038 24.1126 7.82352 23.8687 7.58189L22.5017 6.22648C21.9063 5.63667 21.0681 5.74075 20.5626 6.03913C20.2838 6.20315 19.9578 6.27048 19.636 6.2305C19.3142 6.19051 19.0151 6.04549 18.7858 5.81833C18.5565 5.59116 18.4101 5.2948 18.3697 4.97604C18.3294 4.65728 18.3973 4.33428 18.5629 4.05805C18.8641 3.55729 18.9703 2.72808 18.3738 2.13827L17.0056 0.781701H17.0044Z" fill="white"/>
</svg>
