<svg width="89" height="18" viewBox="0 0 89 18" fill="none" xmlns="http://www.w3.org/2000/svg">
<line x1="4.53857" y1="8.85423" x2="81.9477" y2="8.85423" stroke="#CCCCCC" stroke-width="0.74754" stroke-dasharray="2.24 2.24"/>
<path d="M43.8444 16.2686H42.8237C42.7211 16.2686 42.6202 16.2451 42.5302 16.2002C42.4401 16.1553 42.3638 16.0906 42.3083 16.0118C42.2527 15.933 42.2196 15.8428 42.2121 15.7493C42.2045 15.6558 42.2227 15.5621 42.265 15.4767L44.7367 10.4921L41.0254 10.4168L39.6718 11.9155C39.4138 12.212 39.2079 12.3441 38.6825 12.3441H37.9954C37.8866 12.3473 37.7786 12.3264 37.6805 12.2834C37.5824 12.2403 37.497 12.1763 37.4318 12.0967C37.3405 11.9842 37.2508 11.7936 37.3382 11.5216L38.0982 9.03374C38.1039 9.01517 38.1108 8.9966 38.1185 8.97838C38.1189 8.97664 38.1189 8.97486 38.1185 8.97312C38.1106 8.95492 38.1038 8.93632 38.0982 8.91741L37.3374 6.41373C37.255 6.14707 37.3451 5.96065 37.4356 5.85098C37.4964 5.77729 37.5752 5.71767 37.6658 5.67689C37.7563 5.63611 37.8561 5.61533 37.9571 5.6162H38.6825C39.0748 5.6162 39.4556 5.77704 39.6795 6.03669L41.005 7.51016L44.7367 7.45971L42.2658 2.4839C42.2234 2.39855 42.2051 2.30487 42.2126 2.2114C42.2201 2.11794 42.2531 2.02768 42.3086 1.94887C42.3641 1.87007 42.4403 1.80523 42.5303 1.76029C42.6203 1.71535 42.7212 1.69174 42.8237 1.69162H43.8555C43.9995 1.69426 44.1409 1.72651 44.2694 1.78596C44.3978 1.84541 44.51 1.93054 44.5975 2.03502L49.3924 7.36124L51.6076 7.30798C51.7698 7.29992 52.2191 7.29712 52.3231 7.29712C54.4419 7.29817 55.7073 7.9268 55.7073 8.98013C55.7073 9.31162 55.5624 9.92624 54.5926 10.3173C54.0202 10.5486 53.2564 10.6656 52.3223 10.6656C52.2195 10.6656 51.7713 10.6628 51.6068 10.6547L49.392 10.6008L44.5852 15.927C44.4976 16.031 44.3856 16.1157 44.2574 16.1749C44.1291 16.234 43.988 16.266 43.8444 16.2686V16.2686Z" fill="#1262AE"/>
<circle cx="4.73208" cy="9.22799" r="2.99016" fill="white" stroke="#1262AE" stroke-width="1.49508"/>
<circle cx="84.9809" cy="8.91626" r="2.99016" fill="white" stroke="#1262AE" stroke-width="1.49508"/>
</svg>
