<svg width="50" height="50" viewBox="0 0 50 50" fill="none" xmlns="http://www.w3.org/2000/svg">
<rect x="0.15271" y="0.294067" width="48.8794" height="48.8794" rx="11.9606" fill="#F9668D"/>
<path d="M23.737 21.3418H25.449V20.4938C25.449 20.2689 25.5392 20.0533 25.6998 19.8942C25.8603 19.7352 26.078 19.6459 26.3051 19.6459H28.8731C29.1001 19.6459 29.3179 19.7352 29.4784 19.8942C29.6389 20.0533 29.7291 20.2689 29.7291 20.4938V21.3418H33.1532V17.9499C33.1532 17.0503 32.7925 16.1875 32.1503 15.5514C31.5082 14.9153 30.6372 14.5579 29.7291 14.5579H19.4569C18.5488 14.5579 17.6779 14.9153 17.0357 15.5514C16.3936 16.1875 16.0328 17.0503 16.0328 17.9499V21.3418H19.4569V20.4938C19.4569 20.2689 19.5471 20.0533 19.7076 19.8942C19.8682 19.7352 20.0859 19.6459 20.3129 19.6459H22.881C23.108 19.6459 23.3257 19.7352 23.4863 19.8942C23.6468 20.0533 23.737 20.2689 23.737 20.4938V21.3418Z" fill="white"/>
<path d="M16.8889 23.0379C15.7538 23.0379 14.6652 23.4846 13.8626 24.2797C13.0599 25.0749 12.609 26.1533 12.609 27.2778V34.0617C12.609 34.2866 12.6992 34.5023 12.8597 34.6614C13.0202 34.8204 13.238 34.9097 13.465 34.9097C13.692 34.9097 13.9097 34.8204 14.0703 34.6614C14.2308 34.5023 14.321 34.2866 14.321 34.0617V29.8218H34.8645V34.0617C34.8645 34.2866 34.9547 34.5023 35.1152 34.6614C35.2758 34.8204 35.4935 34.9097 35.7205 34.9097C35.9475 34.9097 36.1653 34.8204 36.3258 34.6614C36.4863 34.5023 36.5765 34.2866 36.5765 34.0617V27.2778C36.5765 26.1533 36.1256 25.0749 35.3229 24.2797C34.5203 23.4846 33.4317 23.0379 32.2966 23.0379H16.8889Z" fill="white"/>
</svg>
