<svg width="50" height="50" viewBox="0 0 50 50" fill="none" xmlns="http://www.w3.org/2000/svg">
<rect x="0.595764" y="0.294067" width="48.8794" height="48.8794" rx="11.9606" fill="#36DA76"/>
<path d="M31.3655 34.2609C31.3244 33.3837 31.2701 32.5112 31.2266 31.6406C31.0859 28.9172 31.0975 26.1538 30.9503 23.4169C30.8031 20.7005 30.8904 17.9823 30.8128 15.266C30.7971 14.7015 30.8223 13.5866 30.2382 13.2648C28.9816 12.5734 28.2356 14.4592 27.9159 15.2269C27.3396 16.6204 27.0067 18.0861 26.5951 19.5297C26.2442 20.7655 25.8447 21.9973 25.7093 23.2767C25.609 24.2368 25.6182 25.3115 26.1198 26.1766C26.3716 26.6113 26.8071 26.9072 27.3029 27.0323C27.8176 27.164 28.406 26.9916 28.8943 27.224C29.0202 27.2848 29.1311 27.4112 29.1816 27.5388C29.3399 27.9502 29.1902 28.5743 29.1407 28.9986C28.9839 30.3656 28.8182 31.7463 28.744 33.1199C28.7001 33.9506 28.6516 35.0144 29.1541 35.7382C29.4621 36.1777 30.0863 36.5881 30.6496 36.3697C31.4914 36.0474 31.4004 34.959 31.3655 34.2609V34.2609Z" fill="white"/>
<path d="M20.6558 13.8711C20.4139 13.9681 20.5056 14.8331 20.4948 15.0989C20.4789 15.5763 20.5115 16.2081 20.454 16.8269C20.4537 16.8324 20.4529 16.8363 20.4521 16.8401C20.4471 16.8831 20.443 16.9295 20.436 16.9785C20.4284 17.0258 20.4204 17.0714 20.4146 17.1182C20.363 17.4199 20.2649 17.7771 20.0793 17.9484C19.8686 18.1443 19.3965 18.1031 19.2325 17.8717C18.9643 17.4948 18.9844 16.6536 18.9681 16.6288C18.9572 16.2308 18.8992 15.027 18.8122 14.2334C18.805 14.1736 18.7935 13.8138 18.465 13.7754C18.3119 13.7588 18.1507 13.8893 18.0985 14.1277C17.9442 14.8313 17.7998 16.1726 17.7907 16.3836C17.7888 16.404 17.7879 16.4278 17.7878 16.4478C17.7878 16.4478 17.787 16.4516 17.7875 16.4533C17.7865 16.4971 17.7343 17.5479 17.4684 17.9105C17.3294 18.1006 16.9685 18.25 16.6099 18.0489C16.4671 17.968 16.3692 17.8119 16.3002 17.6447C15.9252 16.4776 16.2619 15.1918 16.3098 14.5791C16.3239 14.4067 16.48 13.8314 16.1319 13.8506C15.6077 13.8791 14.9307 16.1125 14.8097 16.6244C14.5129 17.8981 14.4679 19.2591 14.9841 20.4877C15.2709 21.168 15.8317 21.7249 16.5272 21.995C16.8346 22.1132 17.1762 22.199 17.5379 22.2488C17.4077 25.1443 17.26 28.1659 17.1254 29.8475C17.0219 31.1129 16.8997 32.3922 16.9162 33.663C16.9259 34.4222 16.9179 35.3274 17.4162 35.964C17.9376 36.629 19.0371 36.3231 19.334 35.5372C19.667 34.6514 19.5702 33.6191 19.4568 31.9925C19.3429 30.3643 19.2148 28.1431 19.1441 26.9481C19.0407 25.1884 19.0047 23.6507 18.9947 22.2477C19.9207 22.1154 20.7843 21.7181 21.2676 20.9874C21.4797 20.6678 21.6193 20.3107 21.7146 19.9433C21.8609 19.3868 21.9322 18.7772 21.9006 18.2032C21.8684 17.6746 21.4341 13.5594 20.6558 13.8711V13.8711Z" fill="white"/>
</svg>
