<svg width="131" height="26" viewBox="0 0 131 26" fill="none" xmlns="http://www.w3.org/2000/svg">
<g clip-path="url(#clip0_1038_1489)">
<path d="M97.862 6.51633C98.8811 6.51633 99.8063 6.64595 100.638 6.90519C101.469 7.16442 102.171 7.49964 102.743 7.91085C103.1 8.16114 103.382 8.43826 103.588 8.74219C103.793 9.04612 103.896 9.43945 103.896 9.92216V19.3083L103.892 19.5635C103.862 20.4035 103.685 21.1364 103.36 21.7621C103.002 22.4504 102.515 23.0225 101.898 23.4784C101.281 23.9343 100.557 24.2696 99.7258 24.4841C98.8945 24.6986 98.005 24.8059 97.0575 24.8059C95.4305 24.8059 94.1522 24.5869 93.2226 24.1489C92.2929 23.7109 91.828 23.0002 91.828 22.0169C91.828 21.6057 91.913 21.2436 92.0828 20.9308C92.2526 20.6179 92.4448 20.381 92.6594 20.2201C93.1779 20.5062 93.7634 20.7475 94.4159 20.9442C95.0685 21.1408 95.7434 21.2392 96.4407 21.2392C97.4061 21.2392 98.1749 21.0783 98.747 20.7565C99.3191 20.4346 99.6051 19.9162 99.6051 19.201V18.772L99.4012 18.8557C98.7083 19.1217 97.8823 19.2547 96.9234 19.2547C96.1189 19.2547 95.3545 19.134 94.6305 18.8926C93.9064 18.6513 93.2717 18.2758 92.7264 17.7663C92.1811 17.2568 91.7431 16.5997 91.4124 15.7952C91.0816 14.9907 90.9162 14.0342 90.9162 12.9257C90.9162 11.8352 91.0906 10.8876 91.4392 10.0831C91.7878 9.27854 92.2705 8.61257 92.8873 8.08516C93.5041 7.55775 94.2371 7.16442 95.0864 6.90519C95.9356 6.64595 96.8608 6.51633 97.862 6.51633ZM25.6766 6.93265C27.271 6.93265 28.5756 7.29041 29.5906 8.00593C30.6055 8.72144 31.2063 9.98526 31.393 11.7974H27.9865L27.9539 11.5969C27.8767 11.2017 27.7282 10.8408 27.5082 10.5141C27.1349 10.0008 26.5555 9.74416 25.77 9.74416C24.65 9.74416 23.8839 10.3002 23.4717 11.4124C23.254 12.0035 23.1451 12.789 23.1451 13.7689C23.1451 14.7022 23.254 15.4527 23.4717 16.0205C23.8684 17.0782 24.615 17.6071 25.7116 17.6071C26.4894 17.6071 27.0416 17.3971 27.3682 16.9771C27.6948 16.5571 27.8932 16.0127 27.9632 15.3439H31.358L31.3349 15.5762C31.2223 16.5018 30.8644 17.3809 30.2614 18.2137C29.2192 19.6681 27.6754 20.3952 25.63 20.3952C23.5845 20.3952 22.0796 19.7886 21.1152 18.5753C20.1508 17.3621 19.6686 15.7872 19.6686 13.8506C19.6686 11.6652 20.2014 9.96582 21.2669 8.75255C22.3324 7.53929 23.8023 6.93265 25.6766 6.93265ZM56.5736 6.89765C57.6313 6.89765 58.584 7.09598 59.4318 7.49262C60.2795 7.88927 60.9795 8.51534 61.5316 9.37085C62.0294 10.1253 62.3522 11.0002 62.4999 11.9957C62.5855 12.579 62.6205 13.419 62.6049 14.5156H53.9021L53.914 14.7367C53.9971 15.895 54.3936 16.7156 55.1037 17.1988C55.5625 17.5176 56.1147 17.6771 56.7602 17.6771C57.4447 17.6771 58.0007 17.4826 58.4285 17.0938C58.6618 16.8838 58.8679 16.5921 59.0468 16.2188H62.4416L62.4164 16.3931C62.2938 17.0911 61.9094 17.7991 61.2633 18.517C60.1745 19.7536 58.6501 20.3719 56.6902 20.3719C55.0726 20.3719 53.6454 19.8508 52.4088 18.8087C51.1722 17.7665 50.5539 16.071 50.5539 13.7223C50.5539 11.5213 51.1119 9.8336 52.228 8.65922C53.344 7.48484 54.7926 6.89765 56.5736 6.89765ZM79.9186 2.22552C80.3119 2.22552 80.665 2.25234 80.9779 2.30597C81.2908 2.35961 81.5545 2.46688 81.769 2.62779C81.9836 2.78869 82.1489 3.0077 82.2651 3.28482C82.3813 3.56193 82.4394 3.92397 82.4394 4.37093V19.9251L82.3494 19.9413C82.1579 19.9752 81.8974 20.019 81.5679 20.0726C81.1835 20.1352 80.7946 20.1665 80.4013 20.1665C80.008 20.1665 79.6549 20.1397 79.342 20.086C79.0292 20.0324 78.7654 19.9251 78.5509 19.7642C78.3364 19.6033 78.171 19.3843 78.0548 19.1072C77.9386 18.8301 77.8805 18.468 77.8805 18.0211V2.46688L77.9705 2.45073C78.162 2.4168 78.4226 2.37302 78.752 2.31938C79.1364 2.25681 79.5253 2.22552 79.9186 2.22552ZM86.7717 6.86496C87.165 6.86496 87.5181 6.89178 87.831 6.94541C88.1439 6.99905 88.4076 7.10632 88.6221 7.26722C88.8367 7.42813 89.002 7.64714 89.1182 7.92425C89.2345 8.20137 89.2926 8.56341 89.2926 9.01037V19.9251L89.2025 19.9413C89.011 19.9752 88.7505 20.019 88.421 20.0726C88.0366 20.1352 87.6477 20.1665 87.2544 20.1665C86.8611 20.1665 86.508 20.1397 86.1951 20.086C85.8823 20.0324 85.6186 19.9251 85.404 19.7642C85.1895 19.6033 85.0241 19.3843 84.9079 19.1072C84.7917 18.8301 84.7336 18.468 84.7336 18.0211V7.10632L84.8236 7.09017C85.0152 7.05624 85.2757 7.01246 85.6051 6.95882C85.9895 6.89625 86.3784 6.86496 86.7717 6.86496ZM108.121 2.22552C108.514 2.22552 108.867 2.25234 109.18 2.30597C109.493 2.35961 109.757 2.46688 109.971 2.62779C110.186 2.78869 110.351 3.0077 110.467 3.28482C110.584 3.56193 110.642 3.92397 110.642 4.37093V6.99905L110.735 6.9649C110.964 6.88375 111.287 6.79233 111.701 6.69065C112.175 6.57444 112.698 6.51633 113.27 6.51633C115.04 6.51633 116.421 6.95882 117.413 7.8438C118.405 8.72878 118.902 10.0473 118.902 11.7994V19.9251L118.819 19.9481C118.64 19.9941 118.386 20.04 118.057 20.086C117.672 20.1397 117.275 20.1665 116.863 20.1665C116.47 20.1665 116.117 20.1397 115.804 20.086C115.491 20.0324 115.228 19.9251 115.013 19.7642C114.798 19.6033 114.633 19.3843 114.517 19.1072C114.401 18.8301 114.343 18.468 114.343 18.0211V12.0676L114.339 11.9023C114.313 11.2568 114.131 10.7979 113.793 10.5256C113.426 10.2306 112.975 10.0831 112.439 10.0831C112.081 10.0831 111.741 10.1278 111.419 10.2172C111.098 10.3065 110.838 10.4138 110.642 10.539V19.9251L110.559 19.9481C110.38 19.9941 110.126 20.04 109.797 20.086C109.413 20.1397 109.015 20.1665 108.604 20.1665C108.21 20.1665 107.857 20.1397 107.544 20.086C107.231 20.0324 106.968 19.9251 106.753 19.7642C106.539 19.6033 106.373 19.3843 106.257 19.1072C106.141 18.8301 106.083 18.468 106.083 18.0211V2.46688L106.173 2.45073C106.364 2.4168 106.625 2.37302 106.954 2.31938C107.339 2.25681 107.728 2.22552 108.121 2.22552ZM76.0154 3.70049L76.0769 3.80441C76.1774 3.98691 76.2687 4.21598 76.3506 4.49161C76.449 4.82236 76.4981 5.16651 76.4981 5.52408C76.4981 6.22134 76.3506 6.71746 76.0557 7.01246C75.7607 7.30745 75.3629 7.45495 74.8623 7.45495H69.2306V10.4853H75.1036L75.1733 10.5889C75.2863 10.7701 75.3837 10.9949 75.4657 11.263C75.564 11.5849 75.6132 11.9245 75.6132 12.2821C75.6132 12.9615 75.4657 13.4487 75.1707 13.7437C74.8757 14.0387 74.4779 14.1862 73.9773 14.1862H69.2842V19.8447L69.1931 19.8676C68.9972 19.9136 68.7191 19.9596 68.359 20.0056C67.9389 20.0592 67.5232 20.086 67.112 20.086C66.7008 20.086 66.3388 20.0547 66.0259 19.9922C65.713 19.9296 65.4493 19.8178 65.2348 19.6569C65.0202 19.496 64.8593 19.2726 64.752 18.9865C64.6448 18.7004 64.5911 18.325 64.5911 17.8602V6.19452L64.5958 6.00568C64.6299 5.32556 64.8519 4.78064 65.2616 4.37093C65.7085 3.92397 66.3164 3.70049 67.0852 3.70049H76.0154ZM12.9843 2.77955V5.80105H4.36314V9.75583H11.9111V12.7423H4.36314V19.9519H0.793335V2.77955H12.9843ZM17.8547 7.23597V19.9519H14.4832V7.23597H17.8547ZM36.2284 2.81455V12.0774L40.3698 7.2943H44.4879L40.0432 12.159L44.6629 19.9519H40.6498L37.605 14.5156L36.2284 15.9505V19.9519H32.9619V2.81455H36.2284ZM48.9967 2.75622V19.9519H45.6719V2.75622H48.9967ZM119.15 3.5902C119.707 3.42261 120.658 3.38533 121.772 3.87775C122.896 4.37485 123.597 5.22748 123.875 6.43566L129.909 6.94849C129.984 6.95282 130.058 6.96796 130.132 6.99391C130.243 7.03282 130.302 7.08757 130.352 7.13043C130.475 7.23551 130.515 7.31653 130.573 7.46162C130.677 7.71962 130.645 8.02327 130.51 8.23148C130.292 8.56716 129.951 8.78435 129.486 8.88306L124.615 9.91845L125.475 13.9638C125.574 14.4282 125.792 14.7273 126.128 14.8611C126.464 14.995 126.901 15.0049 127.436 14.891C127.704 14.8341 127.976 14.7529 128.253 14.6475C128.529 14.5421 128.767 14.4309 128.966 14.3139C129.168 14.4762 129.353 14.6656 129.521 14.8821C129.688 15.0985 129.808 15.3764 129.88 15.7157C130.146 16.9702 128.172 18.1554 126.878 18.388C125.679 18.6034 123.84 18.7823 122.788 16.0278C121.737 13.2734 120.086 8.65623 118.825 4.80848C118.716 4.47643 118.649 4.1503 118.766 3.88118C118.829 3.73572 118.875 3.67293 119.15 3.5902ZM98.0765 10.0831C97.2005 10.0831 96.5435 10.3289 96.1054 10.8206C95.6674 11.3122 95.4484 12.0139 95.4484 12.9257C95.4484 13.9627 95.6674 14.7091 96.1054 15.165C96.5435 15.6209 97.1022 15.8488 97.7815 15.8488C98.5146 15.8488 99.0956 15.679 99.5247 15.3393V10.4049L99.4426 10.362C99.3239 10.3048 99.168 10.2475 98.9749 10.1903C98.7336 10.1188 98.4341 10.0831 98.0765 10.0831ZM56.5736 9.63917C55.8036 9.63917 55.2067 9.88027 54.7829 10.3625C54.359 10.8447 54.0926 11.498 53.9837 12.3224H59.1518C59.0973 11.4435 58.831 10.7766 58.3527 10.3216C57.8743 9.86666 57.2813 9.63917 56.5736 9.63917ZM17.8547 2.65122V5.71939H14.4832V2.65122H17.8547ZM87.0131 0.884644C87.764 0.884644 88.3674 1.11706 88.8233 1.5819C89.2791 2.04674 89.5071 2.61885 89.5071 3.29822C89.5071 3.9776 89.2791 4.54971 88.8233 5.01455C88.3674 5.47939 87.764 5.71181 87.0131 5.71181C86.2622 5.71181 85.6588 5.47939 85.2029 5.01455C84.747 4.54971 84.519 3.9776 84.519 3.29822C84.519 2.61885 84.747 2.04674 85.2029 1.5819C85.6588 1.11706 86.2622 0.884644 87.0131 0.884644Z" fill="white"/>
</g>
<defs>
<clipPath id="clip0_1038_1489">
<rect width="130.072" height="24.6688" fill="white" transform="translate(0.793335 0.491943)"/>
</clipPath>
</defs>
</svg>
