<svg width="131" height="26" viewBox="0 0 131 26" fill="none" xmlns="http://www.w3.org/2000/svg">
<g clip-path="url(#clip0_1038_1489)">
<path d="M97.862 6.44925C98.8811 6.44925 99.8063 6.57887 100.638 6.83811C101.469 7.09735 102.171 7.43257 102.743 7.84377C103.1 8.09407 103.382 8.37118 103.588 8.67511C103.793 8.97904 103.896 9.37237 103.896 9.85509V19.2412L103.892 19.4964C103.862 20.3364 103.685 21.0693 103.36 21.695C103.002 22.3834 102.515 22.9555 101.898 23.4114C101.281 23.8673 100.557 24.2025 99.7258 24.417C98.8945 24.6316 98.005 24.7388 97.0575 24.7388C95.4305 24.7388 94.1522 24.5198 93.2226 24.0818C92.2929 23.6438 91.828 22.9331 91.828 21.9498C91.828 21.5386 91.913 21.1766 92.0828 20.8637C92.2526 20.5508 92.4448 20.3139 92.6594 20.153C93.1779 20.4391 93.7634 20.6804 94.4159 20.8771C95.0685 21.0738 95.7434 21.1721 96.4407 21.1721C97.4061 21.1721 98.1749 21.0112 98.747 20.6894C99.3191 20.3676 99.6051 19.8491 99.6051 19.134V18.7049L99.4012 18.7887C98.7083 19.0546 97.8823 19.1876 96.9234 19.1876C96.1189 19.1876 95.3545 19.0669 94.6305 18.8256C93.9064 18.5842 93.2717 18.2088 92.7264 17.6992C92.1811 17.1897 91.7431 16.5327 91.4124 15.7281C91.0816 14.9236 90.9162 13.9671 90.9162 12.8587C90.9162 11.7681 91.0906 10.8205 91.4392 10.016C91.7878 9.21146 92.2705 8.54549 92.8873 8.01808C93.5041 7.49067 94.2371 7.09735 95.0864 6.83811C95.9356 6.57887 96.8608 6.44925 97.862 6.44925ZM25.6766 6.86557C27.271 6.86557 28.5756 7.22333 29.5906 7.93885C30.6055 8.65436 31.2063 9.91818 31.393 11.7303H27.9865L27.9539 11.5298C27.8767 11.1346 27.7282 10.7737 27.5082 10.447C27.1349 9.93374 26.5555 9.67709 25.77 9.67709C24.65 9.67709 23.8839 10.2332 23.4717 11.3453C23.254 11.9364 23.1451 12.7219 23.1451 13.7019C23.1451 14.6351 23.254 15.3857 23.4717 15.9534C23.8684 17.0111 24.615 17.54 25.7116 17.54C26.4894 17.54 27.0416 17.33 27.3682 16.91C27.6948 16.49 27.8932 15.9456 27.9632 15.2768H31.358L31.3349 15.5091C31.2223 16.4347 30.8644 17.3138 30.2614 18.1466C29.2192 19.601 27.6754 20.3282 25.63 20.3282C23.5845 20.3282 22.0796 19.7215 21.1152 18.5083C20.1508 17.295 19.6686 15.7201 19.6686 13.7835C19.6686 11.5981 20.2014 9.89874 21.2669 8.68547C22.3324 7.47221 23.8023 6.86557 25.6766 6.86557ZM56.5736 6.83058C57.6313 6.83058 58.584 7.0289 59.4318 7.42554C60.2795 7.82219 60.9795 8.44826 61.5316 9.30377C62.0294 10.0582 62.3522 10.9331 62.4999 11.9286C62.5855 12.5119 62.6205 13.3519 62.6049 14.4485H53.9021L53.914 14.6696C53.9971 15.8279 54.3936 16.6486 55.1037 17.1317C55.5625 17.4505 56.1147 17.61 56.7602 17.61C57.4447 17.61 58.0007 17.4155 58.4285 17.0267C58.6618 16.8167 58.8679 16.525 59.0468 16.1517H62.4416L62.4164 16.326C62.2938 17.0241 61.9094 17.732 61.2633 18.4499C60.1745 19.6865 58.6501 20.3048 56.6902 20.3048C55.0726 20.3048 53.6454 19.7837 52.4088 18.7416C51.1722 17.6994 50.5539 16.004 50.5539 13.6552C50.5539 11.4542 51.1119 9.76652 52.228 8.59215C53.344 7.41777 54.7926 6.83058 56.5736 6.83058ZM79.9186 2.15844C80.3119 2.15844 80.665 2.18526 80.9779 2.2389C81.2908 2.29253 81.5545 2.3998 81.769 2.56071C81.9836 2.72161 82.1489 2.94062 82.2651 3.21774C82.3813 3.49485 82.4394 3.85689 82.4394 4.30385V19.858L82.3494 19.8742C82.1579 19.9081 81.8974 19.9519 81.5679 20.0055C81.1835 20.0681 80.7946 20.0994 80.4013 20.0994C80.008 20.0994 79.6549 20.0726 79.342 20.0189C79.0292 19.9653 78.7654 19.858 78.5509 19.6971C78.3364 19.5362 78.171 19.3172 78.0548 19.0401C77.9386 18.763 77.8805 18.4009 77.8805 17.954V2.3998L77.9705 2.38366C78.162 2.34972 78.4226 2.30594 78.752 2.25231C79.1364 2.18973 79.5253 2.15844 79.9186 2.15844ZM86.7717 6.79788C87.165 6.79788 87.5181 6.8247 87.831 6.87834C88.1439 6.93197 88.4076 7.03924 88.6221 7.20015C88.8367 7.36105 89.002 7.58006 89.1182 7.85718C89.2345 8.13429 89.2926 8.49633 89.2926 8.94329V19.858L89.2025 19.8742C89.011 19.9081 88.7505 19.9519 88.421 20.0055C88.0366 20.0681 87.6477 20.0994 87.2544 20.0994C86.8611 20.0994 86.508 20.0726 86.1951 20.0189C85.8823 19.9653 85.6186 19.858 85.404 19.6971C85.1895 19.5362 85.0241 19.3172 84.9079 19.0401C84.7917 18.763 84.7336 18.4009 84.7336 17.954V7.03924L84.8236 7.0231C85.0152 6.98916 85.2757 6.94538 85.6051 6.89174C85.9895 6.82917 86.3784 6.79788 86.7717 6.79788ZM108.121 2.15844C108.514 2.15844 108.867 2.18526 109.18 2.2389C109.493 2.29253 109.757 2.3998 109.971 2.56071C110.186 2.72161 110.351 2.94062 110.467 3.21774C110.584 3.49485 110.642 3.85689 110.642 4.30385V6.93197L110.735 6.89782C110.964 6.81667 111.287 6.72525 111.701 6.62357C112.175 6.50736 112.698 6.44925 113.27 6.44925C115.04 6.44925 116.421 6.89174 117.413 7.77672C118.405 8.6617 118.902 9.98023 118.902 11.7323V19.858L118.819 19.881C118.64 19.927 118.386 19.973 118.057 20.0189C117.672 20.0726 117.275 20.0994 116.863 20.0994C116.47 20.0994 116.117 20.0726 115.804 20.0189C115.491 19.9653 115.228 19.858 115.013 19.6971C114.798 19.5362 114.633 19.3172 114.517 19.0401C114.401 18.763 114.343 18.4009 114.343 17.954V12.0005L114.339 11.8352C114.313 11.1897 114.131 10.7308 113.793 10.4585C113.426 10.1635 112.975 10.016 112.439 10.016C112.081 10.016 111.741 10.0607 111.419 10.1501C111.098 10.2395 110.838 10.3467 110.642 10.4719V19.858L110.559 19.881C110.38 19.927 110.126 19.973 109.797 20.0189C109.413 20.0726 109.015 20.0994 108.604 20.0994C108.21 20.0994 107.857 20.0726 107.544 20.0189C107.231 19.9653 106.968 19.858 106.753 19.6971C106.539 19.5362 106.373 19.3172 106.257 19.0401C106.141 18.763 106.083 18.4009 106.083 17.954V2.3998L106.173 2.38366C106.364 2.34972 106.625 2.30594 106.954 2.25231C107.339 2.18973 107.728 2.15844 108.121 2.15844ZM76.0154 3.63341L76.0769 3.73733C76.1774 3.91984 76.2687 4.1489 76.3506 4.42453C76.449 4.75528 76.4981 5.09944 76.4981 5.457C76.4981 6.15426 76.3506 6.65039 76.0557 6.94538C75.7607 7.24037 75.3629 7.38787 74.8623 7.38787H69.2306V10.4183H75.1036L75.1733 10.5218C75.2863 10.7031 75.3837 10.9278 75.4657 11.196C75.564 11.5178 75.6132 11.8575 75.6132 12.215C75.6132 12.8944 75.4657 13.3816 75.1707 13.6766C74.8757 13.9716 74.4779 14.1191 73.9773 14.1191H69.2842V19.7776L69.1931 19.8006C68.9972 19.8465 68.7191 19.8925 68.359 19.9385C67.9389 19.9921 67.5232 20.0189 67.112 20.0189C66.7008 20.0189 66.3388 19.9877 66.0259 19.9251C65.713 19.8625 65.4493 19.7508 65.2348 19.5899C65.0202 19.429 64.8593 19.2055 64.752 18.9194C64.6448 18.6334 64.5911 18.2579 64.5911 17.7931V6.12744L64.5958 5.9386C64.6299 5.25848 64.8519 4.71356 65.2616 4.30385C65.7085 3.85689 66.3164 3.63341 67.0852 3.63341H76.0154ZM12.9843 2.71247V5.73397H4.36314V9.68875H11.9111V12.6753H4.36314V19.8849H0.793335V2.71247H12.9843ZM17.8547 7.16889V19.8849H14.4832V7.16889H17.8547ZM36.2284 2.74747V12.0103L40.3698 7.22722H44.4879L40.0432 12.092L44.6629 19.8849H40.6498L37.605 14.4485L36.2284 15.8834V19.8849H32.9619V2.74747H36.2284ZM48.9967 2.68914V19.8849H45.6719V2.68914H48.9967ZM119.15 3.52312C119.707 3.35553 120.658 3.31825 121.772 3.81067C122.896 4.30777 123.597 5.16041 123.875 6.36859L129.909 6.88141C129.984 6.88575 130.058 6.90089 130.132 6.92683C130.243 6.96574 130.302 7.02049 130.352 7.06335C130.475 7.16843 130.515 7.24946 130.573 7.39454C130.677 7.65254 130.645 7.9562 130.51 8.1644C130.292 8.50008 129.951 8.71727 129.486 8.81598L124.615 9.85137L125.475 13.8968C125.574 14.3611 125.792 14.6602 126.128 14.7941C126.464 14.9279 126.901 14.9379 127.436 14.824C127.704 14.767 127.976 14.6858 128.253 14.5805C128.529 14.4751 128.767 14.3639 128.966 14.2469C129.168 14.4092 129.353 14.5985 129.521 14.815C129.688 15.0314 129.808 15.3093 129.88 15.6487C130.146 16.9031 128.172 18.0883 126.878 18.3209C125.679 18.5363 123.84 18.7152 122.788 15.9608C121.737 13.2063 120.086 8.58915 118.825 4.7414C118.716 4.40935 118.649 4.08322 118.766 3.81411C118.829 3.66865 118.875 3.60586 119.15 3.52312ZM98.0765 10.016C97.2005 10.016 96.5435 10.2618 96.1054 10.7535C95.6674 11.2451 95.4484 11.9469 95.4484 12.8587C95.4484 13.8956 95.6674 14.642 96.1054 15.0979C96.5435 15.5538 97.1022 15.7818 97.7815 15.7818C98.5146 15.7818 99.0956 15.6119 99.5247 15.2722V10.3378L99.4426 10.2949C99.3239 10.2377 99.168 10.1805 98.9749 10.1233C98.7336 10.0517 98.4341 10.016 98.0765 10.016ZM56.5736 9.57209C55.8036 9.57209 55.2067 9.81319 54.7829 10.2954C54.359 10.7776 54.0926 11.4309 53.9837 12.2553H59.1518C59.0973 11.3764 58.831 10.7095 58.3527 10.2546C57.8743 9.79958 57.2813 9.57209 56.5736 9.57209ZM17.8547 2.58414V5.65231H14.4832V2.58414H17.8547ZM87.0131 0.817566C87.764 0.817566 88.3674 1.04998 88.8233 1.51482C89.2791 1.97966 89.5071 2.55177 89.5071 3.23115C89.5071 3.91053 89.2791 4.48263 88.8233 4.94747C88.3674 5.41231 87.764 5.64473 87.0131 5.64473C86.2622 5.64473 85.6588 5.41231 85.2029 4.94747C84.747 4.48263 84.519 3.91053 84.519 3.23115C84.519 2.55177 84.747 1.97966 85.2029 1.51482C85.6588 1.04998 86.2622 0.817566 87.0131 0.817566Z" fill="white"/>
</g>
<defs>
<clipPath id="clip0_1038_1489">
<rect width="130.072" height="24.6688" fill="white" transform="translate(0.793335 0.424866)"/>
</clipPath>
</defs>
</svg>
