<svg width="98" height="23" viewBox="0 0 98 23" fill="none" xmlns="http://www.w3.org/2000/svg">
<g clip-path="url(#clip0_1038_1495)">
<path d="M12.0065 0.473511C6.06133 0.473511 1.24194 5.2929 1.24194 11.2381C1.24194 17.1833 6.06133 22.0027 12.0065 22.0027C17.9517 22.0027 22.7711 17.1833 22.7711 11.2381C22.7711 5.2929 17.9517 0.473511 12.0065 0.473511ZM14.5564 7.91228H12.9383C12.7466 7.91228 12.5335 8.16457 12.5335 8.49984V9.66825H14.5575L14.2514 11.3345H12.5335V16.3367H10.6239V11.3345H8.89152V9.66825H10.6239V8.68822C10.6239 7.2821 11.5995 6.13949 12.9383 6.13949H14.5564V7.91228V7.91228Z" fill="white"/>
</g>
<g clip-path="url(#clip1_1038_1495)">
<path d="M86.7605 0.47348C80.8153 0.47348 75.9959 5.29287 75.9959 11.2381C75.9959 17.1832 80.8153 22.0026 86.7605 22.0026C92.7057 22.0026 97.5251 17.1832 97.5251 11.2381C97.5251 5.29287 92.7057 0.47348 86.7605 0.47348ZM91.1392 9.29146C91.1437 9.3834 91.1448 9.47535 91.1448 9.56506C91.1448 12.3683 89.0132 15.5988 85.1133 15.5988C83.9609 15.6007 82.8325 15.2698 81.8637 14.6457C82.0286 14.6659 82.1979 14.6737 82.3694 14.6737C83.3629 14.6737 84.2768 14.3362 85.0023 13.7666C84.5602 13.7579 84.1318 13.6115 83.7768 13.3478C83.4218 13.0841 83.158 12.7162 83.022 12.2954C83.3395 12.3558 83.6666 12.3432 83.9785 12.2584C83.4986 12.1614 83.0671 11.9014 82.7571 11.5225C82.447 11.1436 82.2776 10.6691 82.2775 10.1795V10.1537C82.5634 10.3118 82.8908 10.4083 83.2384 10.4195C82.7886 10.12 82.4701 9.66 82.3482 9.1335C82.2262 8.607 82.3101 8.05381 82.5825 7.58707C83.1151 8.24191 83.7792 8.77761 84.532 9.15949C85.2847 9.54137 86.1093 9.76091 86.9522 9.8039C86.8451 9.34899 86.8912 8.87142 87.0834 8.44543C87.2757 8.01945 87.6033 7.66891 88.0153 7.44832C88.4273 7.22773 88.9007 7.14945 89.3618 7.22564C89.8229 7.30183 90.2459 7.52823 90.5651 7.86964C91.0396 7.77576 91.4946 7.60171 91.9107 7.35496C91.7525 7.84624 91.4214 8.26341 90.9789 8.52897C91.3992 8.47834 91.8096 8.36534 92.1966 8.1937C91.9123 8.61967 91.5542 8.99144 91.1392 9.29146V9.29146Z" fill="white"/>
</g>
<g clip-path="url(#clip2_1038_1495)">
<path d="M52.7474 11.2381C52.7474 12.1302 52.393 12.9858 51.7621 13.6167C51.1313 14.2476 50.2756 14.602 49.3835 14.602C48.4913 14.602 47.6357 14.2476 47.0048 13.6167C46.374 12.9858 46.0195 12.1302 46.0195 11.2381C46.0195 11.0463 46.0397 10.859 46.0745 10.6774H44.8982V15.1593C44.8982 15.471 45.1505 15.7233 45.4622 15.7233H53.3058C53.4552 15.723 53.5984 15.6634 53.7039 15.5577C53.8094 15.452 53.8687 15.3087 53.8687 15.1593V10.6774H52.6925C52.7272 10.859 52.7474 11.0463 52.7474 11.2381V11.2381ZM49.3835 13.4807C49.678 13.4806 49.9697 13.4225 50.2419 13.3097C50.514 13.1969 50.7612 13.0316 50.9695 12.8233C51.1777 12.6149 51.3429 12.3676 51.4556 12.0954C51.5682 11.8232 51.6262 11.5315 51.6261 11.2369C51.626 10.9424 51.5679 10.6507 51.4551 10.3785C51.3423 10.1064 51.177 9.85917 50.9687 9.65093C50.7603 9.44268 50.513 9.27751 50.2408 9.16485C49.9686 9.05219 49.6769 8.99424 49.3823 8.99431C48.7874 8.99446 48.2169 9.23094 47.7963 9.65172C47.3758 10.0725 47.1396 10.6431 47.1397 11.2381C47.1399 11.833 47.3764 12.4035 47.7971 12.8241C48.2179 13.2446 48.7885 13.4808 49.3835 13.4807V13.4807ZM52.0746 8.8833H53.4191C53.5084 8.8833 53.5941 8.8479 53.6573 8.78484C53.7206 8.72179 53.7563 8.63623 53.7566 8.54691V7.20246C53.7566 7.11294 53.721 7.0271 53.6577 6.9638C53.5944 6.9005 53.5086 6.86494 53.4191 6.86494H52.0746C51.9851 6.86494 51.8992 6.9005 51.836 6.9638C51.7727 7.0271 51.7371 7.11294 51.7371 7.20246V8.54691C51.7382 8.73192 51.8896 8.8833 52.0746 8.8833V8.8833ZM49.3835 0.47348C46.5285 0.47348 43.7905 1.6076 41.7718 3.62635C39.753 5.6451 38.6189 8.38311 38.6189 11.2381C38.6189 14.093 39.753 16.831 41.7718 18.8498C43.7905 20.8685 46.5285 22.0026 49.3835 22.0026C50.7971 22.0026 52.1969 21.7242 53.5029 21.1832C54.8089 20.6422 55.9956 19.8493 56.9952 18.8498C57.9948 17.8502 58.7877 16.6635 59.3286 15.3575C59.8696 14.0515 60.148 12.6517 60.148 11.2381C60.148 9.82443 59.8696 8.42465 59.3286 7.11863C58.7877 5.81261 57.9948 4.62593 56.9952 3.62635C55.9956 2.62677 54.8089 1.83385 53.5029 1.29288C52.1969 0.751914 50.7971 0.47348 49.3835 0.47348V0.47348ZM54.99 15.5988C54.99 16.2839 54.4294 16.8446 53.7442 16.8446H45.0227C44.3376 16.8446 43.7769 16.2839 43.7769 15.5988V6.87728C43.7769 6.19216 44.3376 5.6315 45.0227 5.6315H53.7442C54.4294 5.6315 54.99 6.19216 54.99 6.87728V15.5988V15.5988Z" fill="white"/>
</g>
<defs>
<clipPath id="clip0_1038_1495">
<rect width="22.4262" height="22.4262" fill="white" transform="translate(0.793335 0.0247803)"/>
</clipPath>
<clipPath id="clip1_1038_1495">
<rect width="22.4262" height="22.4262" fill="white" transform="translate(75.5472 0.0247498)"/>
</clipPath>
<clipPath id="clip2_1038_1495">
<rect width="22.4262" height="22.4262" fill="white" transform="translate(38.1703 0.0247498)"/>
</clipPath>
</defs>
</svg>
