<svg width="98" height="23" viewBox="0 0 98 23" fill="none" xmlns="http://www.w3.org/2000/svg">
<g clip-path="url(#clip0_1038_1495)">
<path d="M12.0065 0.540527C6.06133 0.540527 1.24194 5.35992 1.24194 11.3051C1.24194 17.2503 6.06133 22.0697 12.0065 22.0697C17.9517 22.0697 22.7711 17.2503 22.7711 11.3051C22.7711 5.35992 17.9517 0.540527 12.0065 0.540527ZM14.5564 7.97929H12.9383C12.7466 7.97929 12.5335 8.23159 12.5335 8.56686V9.73527H14.5575L14.2514 11.4015H12.5335V16.4037H10.6239V11.4015H8.89152V9.73527H10.6239V8.75524C10.6239 7.34912 11.5995 6.2065 12.9383 6.2065H14.5564V7.97929V7.97929Z" fill="white"/>
</g>
<g clip-path="url(#clip1_1038_1495)">
<path d="M86.7605 0.540527C80.8153 0.540527 75.9959 5.35992 75.9959 11.3051C75.9959 17.2503 80.8153 22.0697 86.7605 22.0697C92.7057 22.0697 97.5251 17.2503 97.5251 11.3051C97.5251 5.35992 92.7057 0.540527 86.7605 0.540527ZM91.1392 9.3585C91.1437 9.45045 91.1448 9.5424 91.1448 9.6321C91.1448 12.4354 89.0132 15.6659 85.1133 15.6659C83.9609 15.6678 82.8325 15.3368 81.8637 14.7128C82.0286 14.7329 82.1979 14.7408 82.3694 14.7408C83.3629 14.7408 84.2768 14.4033 85.0023 13.8337C84.5602 13.825 84.1318 13.6786 83.7768 13.4149C83.4218 13.1512 83.158 12.7833 83.022 12.3625C83.3395 12.4229 83.6666 12.4102 83.9785 12.3255C83.4986 12.2285 83.0671 11.9684 82.7571 11.5895C82.447 11.2106 82.2776 10.7362 82.2775 10.2466V10.2208C82.5634 10.3789 82.8908 10.4753 83.2384 10.4865C82.7886 10.1871 82.4701 9.72705 82.3482 9.20055C82.2262 8.67405 82.3101 8.12086 82.5825 7.65411C83.1151 8.30896 83.7792 8.84466 84.532 9.22654C85.2847 9.60842 86.1093 9.82795 86.9522 9.87094C86.8451 9.41604 86.8912 8.93847 87.0834 8.51248C87.2757 8.0865 87.6033 7.73596 88.0153 7.51537C88.4273 7.29478 88.9007 7.21649 89.3618 7.29268C89.8229 7.36888 90.2459 7.59527 90.5651 7.93668C91.0396 7.8428 91.4946 7.66875 91.9107 7.422C91.7525 7.91329 91.4214 8.33046 90.9789 8.59601C91.3992 8.54539 91.8096 8.43239 92.1966 8.26074C91.9123 8.68672 91.5542 9.05848 91.1392 9.3585V9.3585Z" fill="white"/>
</g>
<g clip-path="url(#clip2_1038_1495)">
<path d="M52.7474 11.3051C52.7474 12.1973 52.393 13.0529 51.7621 13.6838C51.1313 14.3146 50.2756 14.669 49.3835 14.669C48.4913 14.669 47.6357 14.3146 47.0048 13.6838C46.374 13.0529 46.0195 12.1973 46.0195 11.3051C46.0195 11.1134 46.0397 10.9261 46.0745 10.7444H44.8982V15.2263C44.8982 15.538 45.1505 15.7903 45.4622 15.7903H53.3058C53.4552 15.79 53.5984 15.7305 53.7039 15.6247C53.8094 15.519 53.8687 15.3757 53.8687 15.2263V10.7444H52.6925C52.7272 10.9261 52.7474 11.1134 52.7474 11.3051V11.3051ZM49.3835 13.5477C49.678 13.5476 49.9697 13.4895 50.2419 13.3768C50.514 13.264 50.7612 13.0987 50.9695 12.8903C51.1777 12.682 51.3429 12.4346 51.4556 12.1624C51.5682 11.8903 51.6262 11.5986 51.6261 11.304C51.626 11.0094 51.5679 10.7177 51.4551 10.4456C51.3423 10.1735 51.177 9.92622 50.9687 9.71797C50.7603 9.50973 50.513 9.34456 50.2408 9.23189C49.9686 9.11923 49.6769 9.06128 49.3823 9.06136C48.7874 9.06151 48.2169 9.29798 47.7963 9.71877C47.3758 10.1395 47.1396 10.7102 47.1397 11.3051C47.1399 11.9 47.3764 12.4705 47.7971 12.8911C48.2179 13.3117 48.7885 13.5479 49.3835 13.5477V13.5477ZM52.0746 8.95035H53.4191C53.5084 8.95035 53.5941 8.91494 53.6573 8.85189C53.7206 8.78883 53.7563 8.70327 53.7566 8.61395V7.2695C53.7566 7.17999 53.721 7.09414 53.6577 7.03085C53.5944 6.96755 53.5086 6.93199 53.4191 6.93199H52.0746C51.9851 6.93199 51.8992 6.96755 51.836 7.03085C51.7727 7.09414 51.7371 7.17999 51.7371 7.2695V8.61395C51.7382 8.79897 51.8896 8.95035 52.0746 8.95035V8.95035ZM49.3835 0.540527C46.5285 0.540527 43.7905 1.67465 41.7718 3.6934C39.753 5.71215 38.6189 8.45016 38.6189 11.3051C38.6189 14.16 39.753 16.8981 41.7718 18.9168C43.7905 20.9355 46.5285 22.0697 49.3835 22.0697C50.7971 22.0697 52.1969 21.7912 53.5029 21.2503C54.8089 20.7093 55.9956 19.9164 56.9952 18.9168C57.9948 17.9172 58.7877 16.7305 59.3286 15.4245C59.8696 14.1185 60.148 12.7187 60.148 11.3051C60.148 9.89147 59.8696 8.49169 59.3286 7.18567C58.7877 5.87966 57.9948 4.69298 56.9952 3.6934C55.9956 2.69381 54.8089 1.9009 53.5029 1.35993C52.1969 0.818961 50.7971 0.540527 49.3835 0.540527V0.540527ZM54.99 15.6659C54.99 16.351 54.4294 16.9116 53.7442 16.9116H45.0227C44.3376 16.9116 43.7769 16.351 43.7769 15.6659V6.94433C43.7769 6.25921 44.3376 5.69855 45.0227 5.69855H53.7442C54.4294 5.69855 54.99 6.25921 54.99 6.94433V15.6659V15.6659Z" fill="white"/>
</g>
<defs>
<clipPath id="clip0_1038_1495">
<rect width="22.4262" height="22.4262" fill="white" transform="translate(0.793335 0.0917969)"/>
</clipPath>
<clipPath id="clip1_1038_1495">
<rect width="22.4262" height="22.4262" fill="white" transform="translate(75.5472 0.0917969)"/>
</clipPath>
<clipPath id="clip2_1038_1495">
<rect width="22.4262" height="22.4262" fill="white" transform="translate(38.1703 0.0917969)"/>
</clipPath>
</defs>
</svg>
