<svg width="13" height="14" viewBox="0 0 13 14" fill="none" xmlns="http://www.w3.org/2000/svg">
<path d="M12.5284 5.32284L8.79861 4.7366L7.13128 1.08095C7.08574 0.980865 7.01082 0.899841 6.91827 0.85059C6.68617 0.72667 6.40412 0.829937 6.28807 1.08095L4.62073 4.7366L0.890902 5.32284C0.788071 5.33873 0.694054 5.39115 0.622072 5.47059C0.53505 5.56732 0.487097 5.69746 0.48875 5.83241C0.490403 5.96736 0.541526 6.09608 0.630886 6.19028L3.32947 9.03568L2.69192 13.0536C2.67696 13.147 2.68653 13.2431 2.71952 13.331C2.75251 13.4189 2.80762 13.495 2.87858 13.5508C2.94955 13.6065 3.03353 13.6396 3.12101 13.6464C3.2085 13.6531 3.29598 13.6332 3.37354 13.589L6.70967 11.692L10.0458 13.589C10.1369 13.6414 10.2427 13.6589 10.344 13.6398C10.5996 13.5921 10.7715 13.33 10.7274 13.0536L10.0899 9.03568L12.7885 6.19028C12.8619 6.11243 12.9104 6.01075 12.9251 5.89954C12.9647 5.62152 12.7855 5.36415 12.5284 5.32284V5.32284Z" fill="#FDBF00"/>
</svg>
