<svg width="13" height="14" viewBox="0 0 13 14" fill="none" xmlns="http://www.w3.org/2000/svg">
<path d="M12.1664 5.32284L8.43659 4.7366L6.76927 1.08095C6.72373 0.980865 6.64881 0.899841 6.55626 0.85059C6.32415 0.72667 6.0421 0.829937 5.92605 1.08095L4.25872 4.7366L0.528902 5.32284C0.426071 5.33873 0.332054 5.39115 0.260072 5.47059C0.173051 5.56732 0.125098 5.69746 0.12675 5.83241C0.128403 5.96736 0.179526 6.09608 0.268886 6.19028L2.96746 9.03568L2.32991 13.0536C2.31496 13.147 2.32452 13.2431 2.35752 13.331C2.39051 13.4189 2.44561 13.495 2.51658 13.5508C2.58754 13.6065 2.67152 13.6396 2.75901 13.6464C2.84649 13.6531 2.93397 13.6332 3.01153 13.589L6.34766 11.692L9.68379 13.589C9.77486 13.6414 9.88063 13.6589 9.982 13.6398C10.2376 13.5921 10.4095 13.33 10.3654 13.0536L9.72786 9.03568L12.4264 6.19028C12.4999 6.11243 12.5484 6.01075 12.563 5.89954C12.6027 5.62152 12.4235 5.36415 12.1664 5.32284V5.32284Z" fill="#FDBF00"/>
</svg>
