<svg width="14" height="14" viewBox="0 0 14 14" fill="none" xmlns="http://www.w3.org/2000/svg">
<path d="M12.7411 5.24836L9.01126 4.66212L7.34393 1.00648C7.29839 0.906387 7.22347 0.825363 7.13092 0.776112C6.89882 0.652192 6.61676 0.755459 6.50071 1.00648L4.83338 4.66212L1.10355 5.24836C1.00072 5.26425 0.9067 5.31668 0.834719 5.39611C0.747697 5.49284 0.699744 5.62298 0.701396 5.75793C0.703049 5.89288 0.754172 6.0216 0.843533 6.1158L3.54211 8.9612L2.90456 12.9791C2.88961 13.0725 2.89917 13.1687 2.93217 13.2565C2.96516 13.3444 3.02026 13.4206 3.09123 13.4763C3.16219 13.532 3.24618 13.5652 3.33366 13.5719C3.42114 13.5787 3.50863 13.5588 3.58618 13.5145L6.92232 11.6175L10.2585 13.5145C10.3495 13.5669 10.4553 13.5844 10.5567 13.5653C10.8123 13.5177 10.9841 13.2555 10.9401 12.9791L10.3025 8.9612L13.0011 6.1158C13.0746 6.03795 13.123 5.93628 13.1377 5.82507C13.1774 5.54704 12.9982 5.28967 12.7411 5.24836V5.24836Z" fill="#FDBF00"/>
</svg>
