<svg width="21" height="24" viewBox="0 0 21 24" fill="none" xmlns="http://www.w3.org/2000/svg">
<path d="M0.458069 17.6941C0.458069 18.7905 0.948546 19.7748 1.7157 20.46V22.0548C1.7157 23.0889 2.55832 23.9236 3.60216 23.9236C4.64599 23.9236 5.48861 23.0889 5.48861 22.0548V21.4318H15.5497V22.0548C15.5497 23.0764 16.3923 23.9236 17.4361 23.9236C18.4674 23.9236 19.3226 23.0889 19.3226 22.0548V20.46C20.0897 19.7748 20.5802 18.7905 20.5802 17.6941V5.23514C20.5802 0.874491 16.0779 0.251541 10.5191 0.251541C4.9604 0.251541 0.458069 0.874491 0.458069 5.23514V17.6941ZM4.85979 18.94C3.81595 18.94 2.97334 18.1053 2.97334 17.0712C2.97334 16.0371 3.81595 15.2023 4.85979 15.2023C5.90363 15.2023 6.74624 16.0371 6.74624 17.0712C6.74624 18.1053 5.90363 18.94 4.85979 18.94ZM16.1785 18.94C15.1347 18.94 14.2921 18.1053 14.2921 17.0712C14.2921 16.0371 15.1347 15.2023 16.1785 15.2023C17.2223 15.2023 18.065 16.0371 18.065 17.0712C18.065 18.1053 17.2223 18.94 16.1785 18.94ZM18.065 11.4646H2.97334V5.23514H18.065V11.4646Z" fill="white"/>
</svg>
