<svg width="13" height="14" viewBox="0 0 13 14" fill="none" xmlns="http://www.w3.org/2000/svg">
<path d="M12.5284 5.24835L8.79861 4.66211L7.13128 1.00646C7.08574 0.906372 7.01082 0.825347 6.91827 0.776097C6.68617 0.652177 6.40412 0.755444 6.28807 1.00646L4.62073 4.66211L0.890902 5.24835C0.788071 5.26423 0.694054 5.31666 0.622072 5.3961C0.53505 5.49283 0.487097 5.62297 0.48875 5.75791C0.490403 5.89286 0.541526 6.02158 0.630886 6.11579L3.32947 8.96118L2.69192 12.9791C2.67696 13.0725 2.68653 13.1686 2.71952 13.2565C2.75251 13.3444 2.80762 13.4205 2.87858 13.4763C2.94955 13.532 3.03353 13.5652 3.12101 13.5719C3.2085 13.5786 3.29598 13.5587 3.37354 13.5145L6.70967 11.6175L10.0458 13.5145C10.1369 13.5669 10.2427 13.5844 10.344 13.5653C10.5996 13.5176 10.7715 13.2555 10.7274 12.9791L10.0899 8.96118L12.7885 6.11579C12.8619 6.03794 12.9104 5.93626 12.9251 5.82505C12.9647 5.54702 12.7855 5.28965 12.5284 5.24835V5.24835Z" fill="#FDBF00"/>
</svg>
