<svg width="14" height="14" viewBox="0 0 14 14" fill="none" xmlns="http://www.w3.org/2000/svg">
<path d="M12.7411 5.32284L9.01126 4.7366L7.34393 1.08095C7.29839 0.980865 7.22347 0.899841 7.13092 0.85059C6.89882 0.72667 6.61676 0.829937 6.50071 1.08095L4.83338 4.7366L1.10355 5.32284C1.00072 5.33873 0.9067 5.39115 0.834719 5.47059C0.747697 5.56732 0.699744 5.69746 0.701396 5.83241C0.703049 5.96736 0.754172 6.09608 0.843533 6.19028L3.54211 9.03568L2.90456 13.0536C2.88961 13.147 2.89917 13.2431 2.93217 13.331C2.96516 13.4189 3.02026 13.495 3.09123 13.5508C3.16219 13.6065 3.24618 13.6396 3.33366 13.6464C3.42114 13.6531 3.50863 13.6332 3.58618 13.589L6.92232 11.692L10.2585 13.589C10.3495 13.6414 10.4553 13.6589 10.5567 13.6398C10.8123 13.5921 10.9841 13.33 10.9401 13.0536L10.3025 9.03568L13.0011 6.19028C13.0746 6.11243 13.123 6.01075 13.1377 5.89954C13.1774 5.62152 12.9982 5.36415 12.7411 5.32284V5.32284Z" fill="#FDBF00"/>
</svg>
