<svg width="13" height="14" viewBox="0 0 13 14" fill="none" xmlns="http://www.w3.org/2000/svg">
<path d="M12.1664 5.24836L8.43659 4.66212L6.76927 1.00648C6.72373 0.906387 6.64881 0.825363 6.55626 0.776112C6.32415 0.652192 6.0421 0.755459 5.92605 1.00648L4.25872 4.66212L0.528902 5.24836C0.426071 5.26425 0.332054 5.31668 0.260072 5.39611C0.173051 5.49284 0.125098 5.62298 0.12675 5.75793C0.128403 5.89288 0.179526 6.0216 0.268886 6.1158L2.96746 8.9612L2.32991 12.9791C2.31496 13.0725 2.32452 13.1687 2.35752 13.2565C2.39051 13.3444 2.44561 13.4206 2.51658 13.4763C2.58754 13.532 2.67152 13.5652 2.75901 13.5719C2.84649 13.5787 2.93397 13.5588 3.01153 13.5145L6.34766 11.6175L9.68379 13.5145C9.77486 13.5669 9.88063 13.5844 9.982 13.5653C10.2376 13.5177 10.4095 13.2555 10.3654 12.9791L9.72786 8.9612L12.4264 6.1158C12.4999 6.03795 12.5484 5.93628 12.563 5.82507C12.6027 5.54704 12.4235 5.28967 12.1664 5.24836V5.24836Z" fill="#FDBF00"/>
</svg>
