<svg width="22" height="21" viewBox="0 0 22 21" fill="none" xmlns="http://www.w3.org/2000/svg">
<path d="M18.8793 4.05904C18.6437 3.41584 17.984 2.95797 17.2065 2.95797H14.2613V1.86781C14.2613 1.26822 13.7312 0.777649 13.0833 0.777649H8.37099C7.72306 0.777649 7.19293 1.26822 7.19293 1.86781V2.95797H4.24776C3.47024 2.95797 2.8223 3.41584 2.57491 4.05904L0.254114 10.2403C0.17165 10.4692 0.124527 10.709 0.124527 10.9598V18.7653C0.124527 19.6702 0.913832 20.4006 1.89163 20.4006C2.86942 20.4006 3.65873 19.6702 3.65873 18.7653V18.2202H17.7955V18.7653C17.7955 19.6593 18.5848 20.4006 19.5626 20.4006C20.5286 20.4006 21.3297 19.6702 21.3297 18.7653V10.9598C21.3297 10.7199 21.2826 10.4692 21.2001 10.2403L18.8793 4.05904ZM4.24776 14.9498C3.26997 14.9498 2.48066 14.2193 2.48066 13.3145C2.48066 12.4097 3.26997 11.6793 4.24776 11.6793C5.22556 11.6793 6.01486 12.4097 6.01486 13.3145C6.01486 14.2193 5.22556 14.9498 4.24776 14.9498ZM17.2065 14.9498C16.2287 14.9498 15.4394 14.2193 15.4394 13.3145C15.4394 12.4097 16.2287 11.6793 17.2065 11.6793C18.1843 11.6793 18.9736 12.4097 18.9736 13.3145C18.9736 14.2193 18.1843 14.9498 17.2065 14.9498ZM2.48066 9.49894L4.24776 4.59322H17.2065L18.9736 9.49894H2.48066Z" fill="white"/>
</svg>
