<svg width="14" height="14" viewBox="0 0 14 14" fill="none" xmlns="http://www.w3.org/2000/svg">
<path d="M12.9766 5.32278L9.23964 4.73654L7.5691 1.08089C7.52348 0.980804 7.44841 0.89978 7.35569 0.850529C7.12314 0.726609 6.84054 0.829876 6.72427 1.08089L5.05373 4.73654L1.31672 5.32278C1.2137 5.33866 1.1195 5.39109 1.04738 5.47053C0.960188 5.56726 0.912143 5.6974 0.913799 5.83235C0.915455 5.9673 0.966676 6.09601 1.05621 6.19022L3.75998 9.03562L3.1212 13.0535C3.10622 13.147 3.1158 13.2431 3.14886 13.331C3.18192 13.4189 3.23713 13.495 3.30823 13.5507C3.37933 13.6065 3.46347 13.6396 3.55113 13.6463C3.63878 13.6531 3.72643 13.6332 3.80413 13.5889L7.14669 11.692L10.4892 13.5889C10.5805 13.6413 10.6865 13.6588 10.788 13.6397C11.0441 13.5921 11.2163 13.3299 11.1722 13.0535L10.5334 9.03562L13.2372 6.19022C13.3108 6.11237 13.3593 6.01069 13.374 5.89948C13.4138 5.62146 13.2342 5.36408 12.9766 5.32278V5.32278Z" fill="#FDBF00"/>
</svg>
