<svg width="20" height="18" viewBox="0 0 20 18" fill="none" xmlns="http://www.w3.org/2000/svg">
<path d="M18.0179 0.0325317H2.40385C1.32745 0.0325317 0.452087 0.899731 0.452087 1.96609V15.501C0.452087 16.5673 1.32745 17.4345 2.40385 17.4345H18.0179C19.0943 17.4345 19.9697 16.5673 19.9697 15.501V1.96609C19.9697 0.899731 19.0943 0.0325317 18.0179 0.0325317ZM18.0189 5.8332C18.0179 5.8332 18.0179 5.8332 18.0189 5.8332H17.5651L14.9625 1.96609H18.0179L18.0189 5.8332ZM13.6265 11.6339L8.25913 14.5342V8.73353L13.6265 11.6339ZM12.6857 5.8332L10.0831 1.96609H12.6164L15.2191 5.8332H12.6857V5.8332ZM10.3397 5.8332H7.80632L5.20365 1.96609H7.73704L10.3397 5.8332ZM2.40385 1.96609H2.85763L5.46031 5.8332H2.40385V1.96609Z" fill="white"/>
</svg>
