<svg width="14" height="14" viewBox="0 0 14 14" fill="none" xmlns="http://www.w3.org/2000/svg">
<path d="M12.9766 5.24833L9.23964 4.66209L7.5691 1.00645C7.52348 0.906357 7.44841 0.825332 7.35569 0.776082C7.12314 0.652162 6.84054 0.755428 6.72427 1.00645L5.05373 4.66209L1.31672 5.24833C1.2137 5.26422 1.1195 5.31664 1.04738 5.39608C0.960188 5.49281 0.912143 5.62295 0.913799 5.7579C0.915455 5.89285 0.966676 6.02157 1.05621 6.11577L3.75998 8.96117L3.1212 12.979C3.10622 13.0725 3.1158 13.1686 3.14886 13.2565C3.18192 13.3444 3.23713 13.4205 3.30823 13.4763C3.37933 13.532 3.46347 13.5651 3.55113 13.5719C3.63878 13.5786 3.72643 13.5587 3.80413 13.5144L7.14669 11.6175L10.4892 13.5144C10.5805 13.5669 10.6865 13.5843 10.788 13.5653C11.0441 13.5176 11.2163 13.2555 11.1722 12.979L10.5334 8.96117L13.2372 6.11577C13.3108 6.03792 13.3593 5.93625 13.374 5.82504C13.4138 5.54701 13.2342 5.28964 12.9766 5.24833V5.24833Z" fill="#FDBF00"/>
</svg>
