<svg width="19" height="20" viewBox="0 0 19 20" fill="none" xmlns="http://www.w3.org/2000/svg">
<g clip-path="url(#clip0_1038_1444)">
<path d="M9.6181 17.6063C7.57535 17.6063 5.61626 16.7948 4.17181 15.3504C2.72736 13.9059 1.91588 11.9468 1.91588 9.90406C1.91588 7.8613 2.72736 5.90221 4.17181 4.45776C5.61626 3.01332 7.57535 2.20183 9.6181 2.20183C11.6609 2.20183 13.62 3.01332 15.0644 4.45776C16.5088 5.90221 17.3203 7.8613 17.3203 9.90406C17.3203 11.9468 16.5088 13.9059 15.0644 15.3504C13.62 16.7948 11.6609 17.6063 9.6181 17.6063ZM9.6181 18.7066C11.9527 18.7066 14.1916 17.7792 15.8424 16.1284C17.4932 14.4776 18.4207 12.2386 18.4207 9.90406C18.4207 7.56948 17.4932 5.33052 15.8424 3.67972C14.1916 2.02893 11.9527 1.10152 9.6181 1.10152C7.28352 1.10152 5.04456 2.02893 3.39377 3.67972C1.74297 5.33052 0.815559 7.56948 0.815559 9.90406C0.815559 12.2386 1.74297 14.4776 3.39377 16.1284C5.04456 17.7792 7.28352 18.7066 9.6181 18.7066V18.7066Z" fill="#1262AF"/>
<path d="M7.65313 6.16623C7.75693 6.11278 7.87346 6.089 7.9899 6.09751C8.10635 6.10602 8.21818 6.14649 8.31311 6.21446L12.7553 9.38743C12.8375 9.44613 12.9046 9.52363 12.9508 9.61348C12.9971 9.70333 13.0212 9.80293 13.0212 9.90399C13.0212 10.0051 12.9971 10.1047 12.9508 10.1945C12.9046 10.2843 12.8375 10.3618 12.7553 10.4206L8.31311 13.5935C8.21822 13.6614 8.10643 13.7019 7.99005 13.7104C7.87367 13.7189 7.75719 13.6951 7.65343 13.6418C7.54967 13.5884 7.46264 13.5074 7.4019 13.4078C7.34117 13.3081 7.30909 13.1937 7.30918 13.077V6.73102C7.30906 6.61436 7.3411 6.49992 7.40178 6.40029C7.46246 6.30065 7.54943 6.21966 7.65313 6.16623V6.16623Z" fill="#1262AF"/>
</g>
<defs>
<clipPath id="clip0_1038_1444">
<rect width="18.6885" height="18.6885" fill="white" transform="translate(0.273865 0.559799)"/>
</clipPath>
</defs>
</svg>
