<svg width="20" height="20" viewBox="0 0 20 20" fill="none" xmlns="http://www.w3.org/2000/svg">
<path d="M9.98016 17.6063C7.9374 17.6063 5.97831 16.7948 4.53386 15.3504C3.08941 13.9059 2.27793 11.9468 2.27793 9.90405C2.27793 7.8613 3.08941 5.90221 4.53386 4.45776C5.97831 3.01331 7.9374 2.20183 9.98016 2.20183C12.0229 2.20183 13.982 3.01331 15.4265 4.45776C16.8709 5.90221 17.6824 7.8613 17.6824 9.90405C17.6824 11.9468 16.8709 13.9059 15.4265 15.3504C13.982 16.7948 12.0229 17.6063 9.98016 17.6063ZM9.98016 18.7066C12.3147 18.7066 14.5537 17.7792 16.2045 16.1284C17.8553 14.4776 18.7827 12.2386 18.7827 9.90405C18.7827 7.56947 17.8553 5.33051 16.2045 3.67972C14.5537 2.02892 12.3147 1.10151 9.98016 1.10151C7.64558 1.10151 5.40662 2.02892 3.75582 3.67972C2.10502 5.33051 1.17761 7.56947 1.17761 9.90405C1.17761 12.2386 2.10502 14.4776 3.75582 16.1284C5.40662 17.7792 7.64558 18.7066 9.98016 18.7066V18.7066Z" fill="#1262AF"/>
<path d="M8.01515 6.16622C8.11895 6.11277 8.23548 6.089 8.35193 6.09751C8.46837 6.10601 8.58021 6.14648 8.67513 6.21445L13.1173 9.38742C13.1996 9.44613 13.2666 9.52363 13.3129 9.61348C13.3591 9.70333 13.3833 9.80292 13.3833 9.90398C13.3833 10.005 13.3591 10.1046 13.3129 10.1945C13.2666 10.2843 13.1996 10.3618 13.1173 10.4205L8.67513 13.5935C8.58024 13.6614 8.46846 13.7019 8.35207 13.7104C8.23569 13.7189 8.11922 13.6951 8.01545 13.6417C7.91169 13.5884 7.82466 13.5074 7.76393 13.4077C7.70319 13.3081 7.67111 13.1936 7.6712 13.077V6.73101C7.67108 6.61435 7.70312 6.49992 7.7638 6.40028C7.82448 6.30064 7.91145 6.21966 8.01515 6.16622V6.16622Z" fill="#1262AF"/>
</svg>
