<svg width="19" height="20" viewBox="0 0 19 20" fill="none" xmlns="http://www.w3.org/2000/svg">
<g clip-path="url(#clip0_1038_1444)">
<path d="M9.6181 17.6807C7.57535 17.6807 5.61626 16.8693 4.17181 15.4248C2.72736 13.9804 1.91588 12.0213 1.91588 9.97851C1.91588 7.93575 2.72736 5.97666 4.17181 4.53221C5.61626 3.08776 7.57535 2.27628 9.6181 2.27628C11.6609 2.27628 13.62 3.08776 15.0644 4.53221C16.5088 5.97666 17.3203 7.93575 17.3203 9.97851C17.3203 12.0213 16.5088 13.9804 15.0644 15.4248C13.62 16.8693 11.6609 17.6807 9.6181 17.6807ZM9.6181 18.7811C11.9527 18.7811 14.1916 17.8536 15.8424 16.2028C17.4932 14.5521 18.4207 12.3131 18.4207 9.97851C18.4207 7.64393 17.4932 5.40497 15.8424 3.75417C14.1916 2.10337 11.9527 1.17596 9.6181 1.17596C7.28352 1.17596 5.04456 2.10337 3.39377 3.75417C1.74297 5.40497 0.815559 7.64393 0.815559 9.97851C0.815559 12.3131 1.74297 14.5521 3.39377 16.2028C5.04456 17.8536 7.28352 18.7811 9.6181 18.7811V18.7811Z" fill="#1262AF"/>
<path d="M7.65313 6.24076C7.75693 6.18731 7.87346 6.16353 7.9899 6.17204C8.10635 6.18055 8.21818 6.22101 8.31311 6.28899L12.7553 9.46196C12.8375 9.52066 12.9046 9.59816 12.9508 9.68801C12.9971 9.77786 13.0212 9.87746 13.0212 9.97852C13.0212 10.0796 12.9971 10.1792 12.9508 10.269C12.9046 10.3589 12.8375 10.4364 12.7553 10.4951L8.31311 13.668C8.21822 13.736 8.10643 13.7764 7.99005 13.7849C7.87367 13.7934 7.75719 13.7697 7.65343 13.7163C7.54967 13.6629 7.46264 13.5819 7.4019 13.4823C7.34117 13.3826 7.30909 13.2682 7.30918 13.1515V6.80555C7.30906 6.68888 7.3411 6.57445 7.40178 6.47481C7.46246 6.37517 7.54943 6.29419 7.65313 6.24076V6.24076Z" fill="#1262AF"/>
</g>
<defs>
<clipPath id="clip0_1038_1444">
<rect width="18.6885" height="18.6885" fill="white" transform="translate(0.273865 0.634277)"/>
</clipPath>
</defs>
</svg>
