<svg width="20" height="20" viewBox="0 0 20 20" fill="none" xmlns="http://www.w3.org/2000/svg">
<path d="M9.98016 17.6807C7.9374 17.6807 5.97831 16.8693 4.53386 15.4248C3.08941 13.9804 2.27793 12.0213 2.27793 9.97851C2.27793 7.93575 3.08941 5.97666 4.53386 4.53221C5.97831 3.08776 7.9374 2.27628 9.98016 2.27628C12.0229 2.27628 13.982 3.08776 15.4265 4.53221C16.8709 5.97666 17.6824 7.93575 17.6824 9.97851C17.6824 12.0213 16.8709 13.9804 15.4265 15.4248C13.982 16.8693 12.0229 17.6807 9.98016 17.6807ZM9.98016 18.7811C12.3147 18.7811 14.5537 17.8536 16.2045 16.2028C17.8553 14.5521 18.7827 12.3131 18.7827 9.97851C18.7827 7.64393 17.8553 5.40497 16.2045 3.75417C14.5537 2.10337 12.3147 1.17596 9.98016 1.17596C7.64558 1.17596 5.40662 2.10337 3.75582 3.75417C2.10502 5.40497 1.17761 7.64393 1.17761 9.97851C1.17761 12.3131 2.10502 14.5521 3.75582 16.2028C5.40662 17.8536 7.64558 18.7811 9.98016 18.7811V18.7811Z" fill="#1262AF"/>
<path d="M8.01515 6.24076C8.11895 6.18731 8.23548 6.16353 8.35193 6.17204C8.46837 6.18055 8.58021 6.22101 8.67513 6.28899L13.1173 9.46196C13.1996 9.52066 13.2666 9.59816 13.3129 9.68801C13.3591 9.77786 13.3833 9.87746 13.3833 9.97852C13.3833 10.0796 13.3591 10.1792 13.3129 10.269C13.2666 10.3589 13.1996 10.4364 13.1173 10.4951L8.67513 13.668C8.58024 13.736 8.46846 13.7764 8.35207 13.7849C8.23569 13.7934 8.11922 13.7697 8.01545 13.7163C7.91169 13.6629 7.82466 13.5819 7.76393 13.4823C7.70319 13.3826 7.67111 13.2682 7.6712 13.1515V6.80555C7.67108 6.68888 7.70312 6.57445 7.7638 6.47481C7.82448 6.37517 7.91145 6.29419 8.01515 6.24076V6.24076Z" fill="#1262AF"/>
</svg>
